<svg xmlns="http://www.w3.org/2000/svg" version="1.1" xmlns:xlink="http://www.w3.org/1999/xlink" xmlns:svgjs="http://svgjs.dev/svgjs" width="100%" height="100%" viewBox="0 0 1000 600"><rect width="1000" height="600" x="0" y="0" fill="#274c77"/><g><rect width="333.3333333333333" height="333.3333333333333" rx="13.333333333333334" ry="13.333333333333334" y="178.97088379897176" fill="#e7ecef" transform="matrix(0.79745499713804,0,0,0.79745499713804,0,24.36961248005963)" x="156.7486572265625"/><path d="M288.36630575844515 271.3115800360057L288.36630575844515 271.3115800360057L288.36630575844515 364.60201568827637Q288.36630575844515 375.2025052566461 293.20699174631335 378.9402501333545Q298.04767773418155 382.7086322631506 309.5366476420967 382.7086322631506L309.5366476420967 382.7086322631506L309.5366476420967 387.33485747940443Q305.1248831974573 387.12039670779 296.638364092144 386.7833869238245Q288.12120773374295 386.446377139859 279.0832180728497 386.446377139859L279.0832180728497 386.446377139859Q268.94228730079664 386.446377139859 259.5672878559379 386.7833869238245Q250.19228841107918 387.12039670779 245.10650439850872 387.33485747940443L245.10650439850872 387.33485747940443L245.10650439850872 382.7086322631506Q256.1359155101072 382.7086322631506 262.32464063383753 379.0627991457056Q268.5133657575678 375.4169660282605 268.5133657575678 364.60201568827637L268.5133657575678 364.60201568827637L268.5133657575678 311.2319208093747Q268.5133657575678 300.63143124100503 266.3074835352481 295.5762844815224Q264.1016013129284 290.49050046895195 258.464346744778 288.9586378145633Q252.82709217662767 287.3961379070868 242.90062217618902 287.3961379070868L242.90062217618902 287.3961379070868L242.90062217618902 282.55545191921857Q258.80135652874355 282.1265303759898 269.37120884402543 279.67555012896787Q279.97169841239514 277.25520713503374 288.36630575844515 271.3115800360057ZM364.22414440377264 270.63756046807464L364.22414440377264 270.63756046807464Q373.507232089368 270.63756046807464 380.6763493119071 273.6093740175887Q387.84546653444613 276.61182482019046 391.92022119512 282.2184421352531Q395.9949758557939 287.8556967034034 395.9949758557939 295.79074525313683L395.9949758557939 295.79074525313683Q395.9949758557939 304.3998133708012 391.24620162718895 311.5689305933402Q386.52806465167185 318.73804781587927 379.0219376451673 323.915743587713Q371.51581063866274 329.0934393595467 363.1212032926128 332.1878019214119L363.1212032926128 332.1878019214119Q373.507232089368 332.4022626930263 382.7596825218757 336.04809581047135Q392.0427702074711 339.69392892791643 397.98639730649916 346.95495790971876Q403.93002440552726 354.2466241446089 403.93002440552726 365.7049567994363L403.93002440552726 365.7049567994363Q403.93002440552726 375.8765248245771 399.21188743001017 384.36304392989035Q394.46311320140524 392.8495630352037 386.1910548677063 399.5897587145139Q377.9189965340075 406.2993171407363 367.31850696563777 411.0480913693412Q356.7486546503559 415.7968655979461 345.16777298317743 418.21720859188025Q333.58689131599897 420.6375515858144 322.31238217969826 420.6375515858144L322.31238217969826 420.6375515858144L322.31238217969826 416.6853459374916Q333.58689131599897 416.4402479127894 344.37120440289533 413.0395128200465Q355.18615474287947 409.6081404742159 363.91777187289495 403.2049545788712Q372.61875174982265 396.8324059366143 377.7964475216563 387.33485747940443Q382.9741432934901 377.8373090221946 382.9741432934901 365.7049567994363L382.9741432934901 365.7049567994363Q382.9741432934901 352.7147614902202 376.6935064104965 344.19760513181916Q370.41286952750295 335.7110860265058 359.59791918751887 334.8226056869604L359.59791918751887 334.8226056869604Q356.28909585403926 336.17064482282245 353.74620384775403 337.1510369216312Q351.2339490945566 338.13142902043995 349.2425276438513 338.13142902043995L349.2425276438513 338.13142902043995Q347.46556696476046 338.13142902043995 346.577086625215 337.36549769324563Q345.7192435387574 336.5995663660513 345.7192435387574 335.28216448327703L345.7192435387574 335.28216448327703Q345.7192435387574 333.29074303257175 347.46556696476046 332.1878019214119Q349.2425276438513 331.08486081025205 351.448409866171 331.08486081025205L351.448409866171 331.08486081025205Q353.19473329217413 331.08486081025205 355.09424298361614 331.4218705942175Q356.9631154219703 331.75888037818305 359.16899764429 331.9733411497975L359.16899764429 331.9733411497975Q368.20698730518325 325.14123371122395 372.1898302065938 316.86917537752504Q376.14203585491657 308.5971170438262 376.14203585491657 300.20250969777624L376.14203585491657 300.20250969777624Q376.14203585491657 289.84711815410867 370.96434008308285 285.0983439255038Q365.7866443112491 280.34956969689887 356.9631154219703 280.34956969689887L356.9631154219703 280.34956969689887Q347.9251257610771 280.34956969689887 340.2964497422214 285.1902556847671Q332.6984109764536 290.0615789257231 327.61262696388314 299.9880489261618L327.61262696388314 299.9880489261618L323.8748820871748 298.2110882470709Q327.1837054206543 290.9500592652686 332.4839502048392 284.63878512918717Q337.7535577359363 278.3581482461936 345.5966945264063 274.4978543571341Q353.4398313168763 270.63756046807464 364.22414440377264 270.63756046807464Z " fill="#274c77" transform="matrix(0.79745499713804,0,0,0.79745499713804,0,24.36961248005963)"/><path d="M609.675329124662 282.854736872475L609.675329124662 282.854736872475Q619.0731706275171 282.854736872475 623.9548271859447 285.02146144118876Q628.862588859658 287.18818600990267 632.6217254608 289.8248026537592L632.6217254608 289.8248026537592Q634.8667653753711 291.13005841804465 636.2764416007993 291.7826863001874Q637.6861178262276 292.4353141823301 638.991373590513 292.4353141823301L638.991373590513 292.4353141823301Q640.8709418910842 292.4353141823301 641.7324106955125 290.3730100747591Q642.5677743846552 288.31070596718814 643.1420869209408 284.1860977520461L643.1420869209408 284.1860977520461L647.4494309430827 284.1860977520461Q647.2666951360827 287.3709218169026 646.9795388679399 291.7826863001874Q646.7184877150829 296.19445078347223 646.61406725394 303.4516728328993Q646.5096467927972 310.6827897670407 646.5096467927972 322.5084069914668L646.5096467927972 322.5084069914668L642.2023027706553 322.5084069914668Q641.6279902343697 313.50214221789724 638.2604303625133 305.2268206723275Q634.8667653753711 296.95149912675777 628.3926967845152 291.7043709543303Q621.8925230783736 286.4311376666171 611.372161618233 286.4311376666171L611.372161618233 286.4311376666171Q601.4000075790923 286.4311376666171 594.9259389882363 292.4353141823301Q588.4518703973806 298.4655958133289 588.4518703973806 308.22890893018405L588.4518703973806 308.22890893018405Q588.4518703973806 316.6869662827537 592.7592144195226 322.4300916456097Q597.0926635569502 328.1471118931799 604.3237804910916 332.7677172987504Q611.554897425233 337.3622175890352 620.0129547778026 342.6354508767484L620.0129547778026 342.6354508767484Q629.8023730099435 348.6396273924614 637.3989615580848 354.5654885623174Q645.0216552215118 360.4913497321733 649.4334197047966 367.6180462051718Q653.8451841880815 374.7708477934561 653.8451841880815 384.92573763959683L653.8451841880815 384.92573763959683Q653.8451841880815 396.96019578630865 648.3892150933683 404.8439406025928Q642.9593511139408 412.72768541887683 633.9269812250855 416.69566294230464Q624.8946113362302 420.6375353504466 614.0087782620897 420.6375353504466L614.0087782620897 420.6375353504466Q604.0366242229488 420.6375353504466 598.2151835142357 418.36639032059Q592.3937428055226 416.121350406019 588.2430294750949 413.6674695691624L588.2430294750949 413.6674695691624Q584.1184212599529 411.0569580405915 581.8733813453819 411.0569580405915L581.8733813453819 411.0569580405915Q579.9938130448108 411.0569580405915 579.1323442403825 413.1192621481625Q578.2969805512398 415.18156625573346 577.7226680149543 419.30617447087553L577.7226680149543 419.30617447087553L573.4153239928123 419.30617447087553Q573.7807956068121 415.36430206273343 573.8852160679551 410.0127534291631Q573.9635314138121 404.6612047955928 574.067951874955 396.02041163602314Q574.1462672208121 387.3535133611678 574.1462672208121 374.19653525717047L574.1462672208121 374.19653525717047L578.4797163582398 374.19653525717047Q579.2367647015253 385.47394506059675 582.7087450345246 395.26336329273755Q586.1807253675239 405.0266764095927 593.4118423016653 410.9525375794487Q600.6690643510924 416.8783987493046 612.6774173825185 416.8783987493046L612.6774173825185 416.8783987493046Q618.8904348205172 416.8783987493046 624.4247192610875 414.3462025665908Q629.9851088169435 411.7879012685913 633.5615096110856 406.25361682802105Q637.111805289942 400.7193323874507 637.111805289942 391.8696983055954L637.111805289942 391.8696983055954Q637.111805289942 384.1686892963113 633.4570891499427 378.42556393345535Q629.8023730099435 372.7085436858851 623.2238839579448 367.72246666631463Q616.6453949059462 362.73638964674427 607.7957608240908 357.4892614743168L607.7957608240908 357.4892614743168Q598.9722318575214 352.0332923796036 591.2712228482371 346.39458747789047Q583.5441087236673 340.7558825761773 578.9496084333825 333.3159247197503Q574.3551081430978 325.90207197860894 574.3551081430978 315.38171051846825L574.3551081430978 315.38171051846825Q574.3551081430978 304.28703652204194 579.3150800473825 297.0559195879006Q584.3011570669528 289.8248026537592 592.3937428055226 286.3267172054742Q600.4602234288067 282.854736872475 609.675329124662 282.854736872475ZM698.7720875947865 290.0075384607592L698.7720875947865 290.0075384607592L698.7720875947865 321.38588703418134L726.6001404893523 321.38588703418134L726.6001404893523 325.1450236353234L698.7720875947865 325.1450236353234L698.7720875947865 397.8999799365942Q698.7720875947865 406.7235089031638 701.956911659643 410.29990969730596Q705.1678408397852 413.876310491448 710.8065457414983 413.876310491448L710.8065457414983 413.876310491448Q716.4452506432115 413.876310491448 720.5698588583534 409.25570508587754Q724.7205721887811 404.6612047955928 727.7226604466377 393.7492666061665L727.7226604466377 393.7492666061665L731.4817970477798 394.689050756452Q729.6022287472088 405.6009889458783 724.0418391913528 413.1192621481625Q718.5075547507824 420.6375353504466 707.0474091403562 420.6375353504466L707.0474091403562 420.6375353504466Q700.6516558953575 420.6375353504466 696.5270476802156 419.0451233180184Q692.3763343497878 417.42660617030447 689.1915102849314 414.4245179124479L689.1915102849314 414.4245179124479Q685.0407969545035 410.11717389030593 683.4483849220753 404.0868922593072Q681.8559728896471 398.0827157435942 681.8559728896471 388.11056170445335L681.8559728896471 388.11056170445335L681.8559728896471 325.1450236353234L663.8173382272223 325.1450236353234L663.8173382272223 321.38588703418134L681.8559728896471 321.38588703418134L681.8559728896471 292.6441551046158Q686.5548936410747 292.4353141823301 690.8883427785024 291.88710676133024Q695.1956868006444 291.3127942250446 698.7720875947865 290.0075384607592ZM820.3697145956187 319.1408471196104L820.3697145956187 319.1408471196104L820.3697145956187 397.69113901430853Q820.3697145956187 406.14919636687824 823.476223314618 410.1954892361631Q826.5827320336174 414.24178210544795 834.6753177721871 414.24178210544795L834.6753177721871 414.24178210544795L834.6753177721871 418.18365451359006Q828.8277719481883 417.63544709259014 823.0063312394752 417.63544709259014L823.0063312394752 417.63544709259014Q817.5503621447622 417.63544709259014 812.5903902404774 418.18365451359006Q807.604313220907 418.7579670498756 803.4535998904793 420.24595862116104L803.4535998904793 420.24595862116104L803.4535998904793 398.0827157435942Q798.7546791390516 410.29990969730596 790.2183064406249 415.4687225238763Q781.6558286269124 420.6375353504466 772.6495638533428 420.6375353504466L772.6495638533428 420.6375353504466Q766.0710748013441 420.6375353504466 761.1633131276308 418.7579670498756Q756.2816565692033 416.8783987493046 753.0968325043468 413.4847337621624L753.0968325043468 413.4847337621624Q749.5204317102047 409.7255971610203 748.2151759459192 403.7214206453073Q746.883815066348 397.69113901430853 746.883815066348 388.8676100477389L746.883815066348 388.8676100477389L746.883815066348 341.6956667264629Q746.883815066348 333.2376093738932 743.8817268084915 329.19131650460827Q740.879638550635 325.1450236353234 732.6043170050652 325.1450236353234L732.6043170050652 325.1450236353234L732.6043170050652 321.20315122718137Q738.6084935207783 321.777463763467 744.2471984224915 321.777463763467L744.2471984224915 321.777463763467Q749.7031675172046 321.777463763467 754.689244536775 321.0987307660385Q759.6753215563455 320.44610288389583 763.7999297714874 319.1408471196104L763.7999297714874 319.1408471196104L763.7999297714874 392.9922182628809Q763.7999297714874 398.8397640868797 764.5569781147731 403.7214206453073Q765.3140264580586 408.6030772037348 768.3161147159151 411.6051654615914Q771.3182029737716 414.6072537194479 778.0794278327702 414.6072537194479L778.0794278327702 414.6072537194479Q785.4149652280544 414.6072537194479 791.1580905909104 410.11717389030593Q796.8751108384806 405.6009889458783 800.16435536448 397.8999799365942Q803.4535998904793 390.1728658120243 803.4535998904793 380.5922885021692L803.4535998904793 380.5922885021692L803.4535998904793 341.6956667264629Q803.4535998904793 333.2376093738932 800.4515116326228 329.19131650460827Q797.4494233747662 325.1450236353234 789.1741018291965 325.1450236353234L789.1741018291965 325.1450236353234L789.1741018291965 321.20315122718137Q795.2043834601952 321.777463763467 800.8430883619084 321.777463763467L800.8430883619084 321.777463763467Q806.2729523413359 321.777463763467 811.2590293609063 321.0987307660385Q816.2451063804767 320.44610288389583 820.3697145956187 319.1408471196104ZM929.7762527580248 270.6375429187632L929.7762527580248 270.6375429187632L929.7762527580248 397.50840320730856Q929.7762527580248 405.96646055987827 932.8827614770241 410.0127534291631Q935.9631650807378 414.059046298448 944.0557508193076 414.059046298448L944.0557508193076 414.059046298448L944.0557508193076 418.0009187065901Q938.2343101105945 417.42660617030447 932.4128694018814 417.42660617030447L932.4128694018814 417.42660617030447Q926.9569003071683 417.42660617030447 921.9708232875978 418.0009187065901Q916.9847462680275 418.57523124287565 912.8601380528853 420.06322281416107L912.8601380528853 420.06322281416107L912.8601380528853 293.19236252561564Q912.8601380528853 284.734305173046 909.8580497950288 280.68801230376107Q906.8298564218867 276.6678245497619 898.5806399916025 276.6678245497619L898.5806399916025 276.6678245497619L898.5806399916025 272.69984702633417Q904.5848165073157 273.2741595626198 910.2235214090288 273.2741595626198L910.2235214090288 273.2741595626198Q915.679490503742 273.2741595626198 920.6655675233123 272.62153168047706Q925.6255394275971 271.96890379833434 929.7762527580248 270.6375429187632ZM890.305318446033 318.56653458332477L890.305318446033 318.56653458332477Q898.5806399916025 318.56653458332477 905.811756925744 322.5084069914668Q913.0428738598854 326.47638451489456 915.4967546967421 336.05696182474975L915.4967546967421 336.05696182474975L913.0428738598854 337.93653012532076Q910.4062572160287 330.02668019375096 904.8719727754585 326.47638451489456Q899.3115832196024 322.89998372075246 891.7933100173184 322.89998372075246L891.7933100173184 322.89998372075246Q880.7247411361777 322.89998372075246 873.2847832797506 334.36012933117865Q865.8709305386094 345.82027494160485 866.0536663456094 369.70645542802856L866.0536663456094 369.70645542802856Q866.0536663456094 384.92573763959683 868.9774392576087 394.97620702459477Q871.8751070543224 405.0266764095927 877.6182324171783 410.0127534291631Q883.3352526647486 414.99883044873354 891.6105742103184 414.99883044873354L891.6105742103184 414.99883044873354Q899.5204241418882 414.99883044873354 905.8900722716012 408.2376055897349Q912.2858255165997 401.4502756154506 913.6171863961711 388.2932975114533L913.6171863961711 388.2932975114533L915.8622263107419 390.9299141553099Q914.3481296241707 405.2094122165927 906.7515410760295 412.9365263411625Q899.1288474126025 420.6375353504466 886.1546051156051 420.6375353504466L886.1546051156051 420.6375353504466Q874.5117236981789 420.6375353504466 865.7665100774665 414.99883044873354Q857.021296456754 409.3601255470204 852.4267961664693 398.0827157435942Q847.8322958761845 386.8053059401679 847.8322958761845 369.70645542802856L847.8322958761845 369.70645542802856Q847.8322958761845 352.58149980060347 853.7320519307548 341.22577465132014Q859.6579131006106 329.843944386751 869.3429108716086 324.2052394850379Q879.0279086426067 318.56653458332477 890.305318446033 318.56653458332477ZM974.88589197173 274.2139437129053L974.88589197173 274.2139437129053Q979.7675485301573 274.2139437129053 983.3439493242995 277.7903445070474Q986.9203501184417 281.36674530118955 986.9203501184417 286.2484018596171L986.9203501184417 286.2484018596171Q986.9203501184417 291.13005841804465 983.3439493242995 294.7064592121868Q979.7675485301573 298.2828600063289 974.88589197173 298.2828600063289L974.88589197173 298.2828600063289Q970.0042354133022 298.2828600063289 966.4278346191602 294.7064592121868Q962.8514338250179 291.13005841804465 962.8514338250179 286.2484018596171L962.8514338250179 286.2484018596171Q962.8514338250179 281.36674530118955 966.4278346191602 277.7903445070474Q970.0042354133022 274.2139437129053 974.88589197173 274.2139437129053ZM984.649205088585 319.1408471196104L984.649205088585 319.1408471196104L984.649205088585 400.5104914651651Q984.649205088585 408.4203413967349 987.9384496145843 411.23969384759147Q991.2276941405836 414.059046298448 998.9287031498677 414.059046298448L998.9287031498677 414.059046298448L998.9287031498677 418.0009187065901Q995.7438790850113 417.8181828995901 989.2698104941554 417.53102663144733Q982.7696367880139 417.2438703633045 976.1911477360153 417.2438703633045L976.1911477360153 417.2438703633045Q969.7953944910166 417.2438703633045 963.216905439018 417.53102663144733Q956.6384163870193 417.8181828995901 953.4535923221629 418.0009187065901L953.4535923221629 418.0009187065901L953.4535923221629 414.059046298448Q961.1546013314469 414.059046298448 964.4438458574463 411.23969384759147Q967.7330903834456 408.4203413967349 967.7330903834456 400.5104914651651L967.7330903834456 400.5104914651651L967.7330903834456 341.6956667264629Q967.7330903834456 333.2376093738932 964.731002125589 329.19131650460827Q961.7289138677324 325.1450236353234 953.4535923221629 325.1450236353234L953.4535923221629 325.1450236353234L953.4535923221629 321.20315122718137Q959.4577688378758 321.777463763467 965.096473739589 321.777463763467L965.096473739589 321.777463763467Q970.5524428343022 321.777463763467 975.5385198538727 321.0987307660385Q980.524596873443 320.44610288389583 984.649205088585 319.1408471196104ZM1054.5848089389992 318.56653458332477L1054.5848089389992 318.56653458332477Q1066.5931619704254 318.56653458332477 1076.1998443955663 323.83976787103796Q1085.7804217054213 329.08689604346546 1091.4974419529917 340.36430584689174Q1097.2405673158476 351.64171565031796 1097.2405673158476 369.70645542802856L1097.2405673158476 369.70645542802856Q1097.2405673158476 387.7450900904534 1091.4974419529917 398.9180794327369Q1085.7804217054213 410.11717389030593 1076.1998443955663 415.36430206273343Q1066.5931619704254 420.6375353504466 1054.5848089389992 420.6375353504466L1054.5848089389992 420.6375353504466Q1042.7330865992872 420.6375353504466 1033.0480888282893 415.36430206273343Q1023.3630910572913 410.11717389030593 1017.6460708097211 398.9180794327369Q1011.902945446865 387.7450900904534 1011.902945446865 369.70645542802856L1011.902945446865 369.70645542802856Q1011.902945446865 351.64171565031796 1017.6460708097211 340.36430584689174Q1023.3630910572913 329.08689604346546 1033.0480888282893 323.83976787103796Q1042.7330865992872 318.56653458332477 1054.5848089389992 318.56653458332477ZM1054.5848089389992 322.32567118446684L1054.5848089389992 322.32567118446684Q1043.8556065565729 322.32567118446684 1036.9899612364313 333.42034518089315Q1030.1504210315757 344.5150191773194 1030.1504210315757 369.70645542802856L1030.1504210315757 369.70645542802856Q1030.1504210315757 394.87178656345196 1036.9899612364313 405.8881452140211Q1043.8556065565729 416.8783987493046 1054.5848089389992 416.8783987493046L1054.5848089389992 416.8783987493046Q1065.28790620614 416.8783987493046 1072.1535515262813 405.8881452140211Q1079.0191968464228 394.87178656345196 1079.0191968464228 369.70645542802856L1079.0191968464228 369.70645542802856Q1079.0191968464228 344.5150191773194 1072.1535515262813 333.42034518089315Q1065.28790620614 322.32567118446684 1054.5848089389992 322.32567118446684Z " fill="#e7ecef" transform="matrix(0.79745499713804,0,0,0.79745499713804,0,24.36961248005963)"/></g></svg>